<svg xmlns="http://www.w3.org/2000/svg" viewBox="0 0 1280 720" width="1280" height="720">
  <rect width="1280" height="720" fill="#FFFFFF" />

  <g id="p05-header">
    <text x="60" y="74" font-family="'Microsoft YaHei','PingFang SC',Arial,sans-serif" font-size="30" font-weight="800" fill="#1A3C6E">Q9 频率重编码为三分类，并剔除 6 类泄漏与噪声列</text>
    <path fill="#B11226" d="M64.50,90 H119.50 A2.50,2.50 0 0 1 122,92.50 V92.50 A2.50,2.50 0 0 1 119.50,95 H64.50 A2.50,2.50 0 0 1 62,92.50 V92.50 A2.50,2.50 0 0 1 64.50,90 Z" />
  </g>

  <g id="label-panel">
    <text x="60" y="146" font-family="'Microsoft YaHei','PingFang SC',Arial,sans-serif" font-size="13" font-weight="700" fill="#B11226" letter-spacing="2">① 标签构造 · Q9 → 三分类</text>
    <rect x="60" y="164" width="560" height="40" fill="#F3F1EC" />
    <text x="78" y="189" font-family="'Microsoft YaHei','PingFang SC',Arial,sans-serif" font-size="13" font-weight="700" fill="#56606B">原始编码 · 含义</text>
    <text x="608" y="189" text-anchor="end" font-family="'Microsoft YaHei','PingFang SC',Arial,sans-serif" font-size="13" font-weight="700" fill="#56606B">重编码分组</text>

    <path fill="#B11226" d="M63,204 H63 A3,3 0 0 1 66,207 V277 A3,3 0 0 1 63,280 H63 A3,3 0 0 1 60,277 V207 A3,3 0 0 1 63,204 Z" />
    <text x="80" y="234" font-family="'Microsoft YaHei','PingFang SC',Arial,sans-serif" font-size="16" font-weight="700" fill="#23262B">编码 1 · 从未使用</text>
    <text x="80" y="260" font-family="'Microsoft YaHei','PingFang SC',Arial,sans-serif" font-size="14" fill="#8C949D">145 人 · 8.1%</text>
    <path fill="#FBE9EB" d="M490,222 H588 A20,20 0 0 1 608,242 V242 A20,20 0 0 1 588,262 H490 A20,20 0 0 1 470,242 V242 A20,20 0 0 1 490,222 Z" />
    <text x="539" y="248" text-anchor="middle" font-family="'Microsoft YaHei','PingFang SC',Arial,sans-serif" font-size="17" font-weight="800" fill="#B11226">低频</text>

    <path fill="#1A3C6E" d="M63,290 H63 A3,3 0 0 1 66,293 V363 A3,3 0 0 1 63,366 H63 A3,3 0 0 1 60,363 V293 A3,3 0 0 1 63,290 Z" />
    <text x="80" y="320" font-family="'Microsoft YaHei','PingFang SC',Arial,sans-serif" font-size="16" font-weight="700" fill="#23262B">编码 2 · 一周 1～10 次</text>
    <text x="80" y="346" font-family="'Microsoft YaHei','PingFang SC',Arial,sans-serif" font-size="14" fill="#8C949D">1315 人 · 73.8%</text>
    <path fill="#E7EDF5" d="M490,308 H588 A20,20 0 0 1 608,328 V328 A20,20 0 0 1 588,348 H490 A20,20 0 0 1 470,328 V328 A20,20 0 0 1 490,308 Z" />
    <text x="539" y="334" text-anchor="middle" font-family="'Microsoft YaHei','PingFang SC',Arial,sans-serif" font-size="17" font-weight="800" fill="#1A3C6E">中频</text>

    <path fill="#5B7DB1" d="M63,376 H63 A3,3 0 0 1 66,379 V449 A3,3 0 0 1 63,452 H63 A3,3 0 0 1 60,449 V379 A3,3 0 0 1 63,376 Z" />
    <text x="80" y="406" font-family="'Microsoft YaHei','PingFang SC',Arial,sans-serif" font-size="16" font-weight="700" fill="#23262B">编码 3～6 · 一周 11 次以上</text>
    <text x="80" y="432" font-family="'Microsoft YaHei','PingFang SC',Arial,sans-serif" font-size="14" fill="#8C949D">321 人 · 18.0%</text>
    <path fill="#EAF1F6" d="M490,394 H588 A20,20 0 0 1 608,414 V414 A20,20 0 0 1 588,434 H490 A20,20 0 0 1 470,414 V414 A20,20 0 0 1 490,394 Z" />
    <text x="539" y="420" text-anchor="middle" font-family="'Microsoft YaHei','PingFang SC',Arial,sans-serif" font-size="17" font-weight="800" fill="#5B7DB1">高频</text>

    
  <g transform="translate(60.0, 476.0) scale(1.0833333333333333)" fill="none" stroke="#1A3C6E" stroke-width="2">
    <path d="M3 8v4.172a2 2 0 0 0 .586 1.414l5.71 5.71a2.41 2.41 0 0 0 3.408 0l3.592 -3.592a2.41 2.41 0 0 0 0 -3.408l-5.71 -5.71a2 2 0 0 0 -1.414 -.586h-4.172a2 2 0 0 0 -2 2" />
    <path d="M18 19l1.592 -1.592a4.82 4.82 0 0 0 0 -6.816l-4.592 -4.592" />
    <path d="M7 10h-.01" />
  </g>
    <text x="96" y="496" font-family="'Microsoft YaHei','PingFang SC',Arial,sans-serif" font-size="15" fill="#23262B">相邻频率级合并，<tspan font-weight="800" fill="#1A3C6E">高频</tspan>纳入所有"一周 11 次以上"档位</text>
  </g>

  <line x1="652" y1="146" x2="652" y2="650" stroke="#E8E3D6" stroke-width="1.5" />

  <g id="clean-panel">
    <text x="680" y="146" font-family="'Microsoft YaHei','PingFang SC',Arial,sans-serif" font-size="13" font-weight="700" fill="#B11226" letter-spacing="2">② 数据清洗 · 剔除泄漏与噪声列</text>
    
  <g transform="translate(680.0, 166.0)" fill="none" stroke="#C77700" stroke-width="2">
    <path d="M4 4h16v2.172a2 2 0 0 1 -.586 1.414l-4.414 4.414v7l-6 2v-8.5l-4.48 -4.928a2 2 0 0 1 -.52 -1.345v-2.227" />
  </g>
    <text x="712" y="185" font-family="'Microsoft YaHei','PingFang SC',Arial,sans-serif" font-size="14" fill="#56606B">共剔除 8 类列，确保标签不泄漏、消除冗余与噪声</text>

    <path fill="#FFFFFF" stroke="#D4D0C4" stroke-width="1" d="M688,204 H1212 A8,8 0 0 1 1220,212 V258 A8,8 0 0 1 1212,266 H688 A8,8 0 0 1 680,258 V212 A8,8 0 0 1 688,204 Z" />
    <path fill="#B11226" d="M682.50,204 H682.50 A2.50,2.50 0 0 1 685,206.50 V263.50 A2.50,2.50 0 0 1 682.50,266 H682.50 A2.50,2.50 0 0 1 680,263.50 V206.50 A2.50,2.50 0 0 1 682.50,204 Z" />
    <text x="700" y="230" font-family="'Microsoft YaHei','PingFang SC',Arial,sans-serif" font-size="15" font-weight="700" fill="#23262B">Q15 总体情况 / 总分</text>
    <text x="700" y="252" font-family="'Microsoft YaHei','PingFang SC',Arial,sans-serif" font-size="13" fill="#C77700">目标泄漏：与频率 r = 0.235，量表总分高度相关</text>

    <path fill="#FFFFFF" stroke="#D4D0C4" stroke-width="1" d="M688,276 H1212 A8,8 0 0 1 1220,284 V330 A8,8 0 0 1 1212,338 H688 A8,8 0 0 1 680,330 V284 A8,8 0 0 1 688,276 Z" />
    <path fill="#C77700" d="M682.50,276 H682.50 A2.50,2.50 0 0 1 685,278.50 V335.50 A2.50,2.50 0 0 1 682.50,338 H682.50 A2.50,2.50 0 0 1 680,335.50 V278.50 A2.50,2.50 0 0 1 682.50,276 Z" />
    <text x="700" y="302" font-family="'Microsoft YaHei','PingFang SC',Arial,sans-serif" font-size="15" font-weight="700" fill="#23262B">Q16 该不该使用</text>
    <text x="700" y="324" font-family="'Microsoft YaHei','PingFang SC',Arial,sans-serif" font-size="13" fill="#8C949D">近零方差：95.9% 选"应该"，无区分度</text>

    <path fill="#FFFFFF" stroke="#D4D0C4" stroke-width="1" d="M688,348 H1212 A8,8 0 0 1 1220,356 V402 A8,8 0 0 1 1212,410 H688 A8,8 0 0 1 680,402 V356 A8,8 0 0 1 688,348 Z" />
    <path fill="#5B7DB1" d="M682.50,348 H682.50 A2.50,2.50 0 0 1 685,350.50 V407.50 A2.50,2.50 0 0 1 682.50,410 H682.50 A2.50,2.50 0 0 1 680,407.50 V350.50 A2.50,2.50 0 0 1 682.50,348 Z" />
    <text x="700" y="374" font-family="'Microsoft YaHei','PingFang SC',Arial,sans-serif" font-size="15" font-weight="700" fill="#23262B">Q14 注意力检测题</text>
    <text x="700" y="396" font-family="'Microsoft YaHei','PingFang SC',Arial,sans-serif" font-size="13" fill="#8C949D">34.9% 未通过，质量筛除</text>

    <path fill="#FFFFFF" stroke="#D4D0C4" stroke-width="1" d="M688,420 H1212 A8,8 0 0 1 1220,428 V474 A8,8 0 0 1 1212,482 H688 A8,8 0 0 1 680,474 V428 A8,8 0 0 1 688,420 Z" />
    <path fill="#8C949D" d="M682.50,420 H682.50 A2.50,2.50 0 0 1 685,422.50 V479.50 A2.50,2.50 0 0 1 682.50,482 H682.50 A2.50,2.50 0 0 1 680,479.50 V422.50 A2.50,2.50 0 0 1 682.50,420 Z" />
    <text x="700" y="446" font-family="'Microsoft YaHei','PingFang SC',Arial,sans-serif" font-size="15" font-weight="700" fill="#23262B">学校 / 所用时间 / 序号 / Q17 Q18</text>
    <text x="700" y="468" font-family="'Microsoft YaHei','PingFang SC',Arial,sans-serif" font-size="13" fill="#8C949D">共线、元数据、无意义、开放文本</text>

    <path fill="#F3F1EC" d="M690,502 H1210 A10,10 0 0 1 1220,512 V560 A10,10 0 0 1 1210,570 H690 A10,10 0 0 1 680,560 V512 A10,10 0 0 1 690,502 Z" />
    
  <g transform="translate(700.0, 522.0)" fill="none" stroke="#2E7D32" stroke-width="2">
    <path d="M3 12a9 9 0 1 0 18 0a9 9 0 1 0 -18 0" />
    <path d="M9 12l2 2l4 -4" />
  </g>
    <text x="734" y="540" font-family="'Microsoft YaHei','PingFang SC',Arial,sans-serif" font-size="15" font-weight="700" fill="#1A3C6E">清洗后进入建模：约 64 个特征</text>
    <text x="734" y="560" font-family="'Microsoft YaHei','PingFang SC',Arial,sans-serif" font-size="13" fill="#56606B">防泄漏 + 去冗余 + 质量筛除三原则并行</text>
  </g>

  <g id="p05-footer">
    <line x1="60" y1="690" x2="1220" y2="690" stroke="#E8E3D6" stroke-width="1" />
    <text x="60" y="708" font-family="'Microsoft YaHei','PingFang SC',Arial,sans-serif" font-size="11" fill="#8C949D">说明：标签重编码与列剔除均在数据预处理阶段完成，写入可复现 Pipeline</text>
    <text x="1220" y="708" text-anchor="end" font-family="'Microsoft YaHei','PingFang SC',Arial,sans-serif" font-size="11" fill="#8C949D">05 / 14</text>
  </g>
</svg>