<svg xmlns="http://www.w3.org/2000/svg" viewBox="0 0 1280 720" width="1280" height="720">
  <rect width="1280" height="720" fill="#FFFFFF" />

  <g id="p13-header">
    <text x="60" y="74" font-family="'Microsoft YaHei','PingFang SC',Arial,sans-serif" font-size="30" font-weight="800" fill="#1A3C6E">产品广度与功能取向是频率主因，样本不平衡是核心瓶颈</text>
    <path fill="#B11226" d="M64.50,90 H119.50 A2.50,2.50 0 0 1 122,92.50 V92.50 A2.50,2.50 0 0 1 119.50,95 H64.50 A2.50,2.50 0 0 1 62,92.50 V92.50 A2.50,2.50 0 0 1 64.50,90 Z" />
  </g>

  <g id="conclusions-track">
    <text x="60" y="132" font-family="'Microsoft YaHei','PingFang SC',Arial,sans-serif" font-size="13" font-weight="700" fill="#B11226" letter-spacing="2">四点核心结论</text>
    <line x1="92" y1="150" x2="92" y2="640" stroke="#1A3C6E" stroke-width="3" stroke-linecap="round" />

    <g id="concl-1">
      <circle cx="92" cy="184" r="24" fill="#1A3C6E" />
      <text x="92" y="191" text-anchor="middle" font-family="'Microsoft YaHei','PingFang SC',Arial,sans-serif" font-size="15" font-weight="800" fill="#FFFFFF">01</text>
      <path fill="#FFFFFF" stroke="#D4D0C4" stroke-width="1" d="M148,150 H692 A8,8 0 0 1 700,158 V210 A8,8 0 0 1 692,218 H148 A8,8 0 0 1 140,210 V158 A8,8 0 0 1 148,150 Z" />
      <path fill="#1A3C6E" d="M142.50,150 H142.50 A2.50,2.50 0 0 1 145,152.50 V215.50 A2.50,2.50 0 0 1 142.50,218 H142.50 A2.50,2.50 0 0 1 140,215.50 V152.50 A2.50,2.50 0 0 1 142.50,150 Z" />
      
  <g transform="translate(160.0, 166.0) scale(0.9166666666666666)" fill="none" stroke="#1A3C6E" stroke-width="2">
    <path d="M12 4l-8 4l8 4l8 -4l-8 -4" />
    <path d="M4 12l8 4l8 -4" />
    <path d="M4 16l8 4l8 -4" />
  </g>
      <text x="192" y="184" font-family="'Microsoft YaHei','PingFang SC',Arial,sans-serif" font-size="16" font-weight="800" fill="#23262B">使用产品数量是最强预测因子</text>
      <text x="192" y="206" font-family="'Microsoft YaHei','PingFang SC',Arial,sans-serif" font-size="14" fill="#56606B">相关系数 <tspan font-weight="800" fill="#1A3C6E">r = 0.364</tspan>，三方法共识排名第一</text>
    </g>

    <g id="concl-2">
      <circle cx="92" cy="288" r="24" fill="#B11226" />
      <text x="92" y="295" text-anchor="middle" font-family="'Microsoft YaHei','PingFang SC',Arial,sans-serif" font-size="15" font-weight="800" fill="#FFFFFF">02</text>
      <path fill="#FFFFFF" stroke="#D4D0C4" stroke-width="1" d="M148,254 H692 A8,8 0 0 1 700,262 V314 A8,8 0 0 1 692,322 H148 A8,8 0 0 1 140,314 V262 A8,8 0 0 1 148,254 Z" />
      <path fill="#B11226" d="M142.50,254 H142.50 A2.50,2.50 0 0 1 145,256.50 V319.50 A2.50,2.50 0 0 1 142.50,322 H142.50 A2.50,2.50 0 0 1 140,319.50 V256.50 A2.50,2.50 0 0 1 142.50,254 Z" />
      
  <g transform="translate(160.0, 270.0) scale(0.9166666666666666)" fill="none" stroke="#B11226" stroke-width="2">
    <path d="M13 3l0 7l6 0l-8 11l0 -7l-6 0l8 -11" />
  </g>
      <text x="192" y="288" font-family="'Microsoft YaHei','PingFang SC',Arial,sans-serif" font-size="16" font-weight="800" fill="#23262B">文本生成功能是关键区分因素</text>
      <text x="192" y="310" font-family="'Microsoft YaHei','PingFang SC',Arial,sans-serif" font-size="14" fill="#56606B">越倾向文本生成 / 编程调试，使用频率越高</text>
    </g>

    <g id="concl-3">
      <circle cx="92" cy="392" r="24" fill="#5B7DB1" />
      <text x="92" y="399" text-anchor="middle" font-family="'Microsoft YaHei','PingFang SC',Arial,sans-serif" font-size="15" font-weight="800" fill="#FFFFFF">03</text>
      <path fill="#FFFFFF" stroke="#D4D0C4" stroke-width="1" d="M148,358 H692 A8,8 0 0 1 700,366 V418 A8,8 0 0 1 692,426 H148 A8,8 0 0 1 140,418 V366 A8,8 0 0 1 148,358 Z" />
      <path fill="#5B7DB1" d="M142.50,358 H142.50 A2.50,2.50 0 0 1 145,360.50 V423.50 A2.50,2.50 0 0 1 142.50,426 H142.50 A2.50,2.50 0 0 1 140,423.50 V360.50 A2.50,2.50 0 0 1 142.50,358 Z" />
      
  <g transform="translate(160.0, 374.0) scale(0.9166666666666666)" fill="none" stroke="#5B7DB1" stroke-width="2">
    <path d="M5 7a4 4 0 1 0 8 0a4 4 0 1 0 -8 0" />
    <path d="M3 21v-2a4 4 0 0 1 4 -4h4a4 4 0 0 1 4 4v2" />
    <path d="M16 3.13a4 4 0 0 1 0 7.75" />
    <path d="M21 21v-2a4 4 0 0 0 -3 -3.85" />
  </g>
      <text x="192" y="392" font-family="'Microsoft YaHei','PingFang SC',Arial,sans-serif" font-size="16" font-weight="800" fill="#23262B">性别与学科背景对频率有显著影响</text>
      <text x="192" y="414" font-family="'Microsoft YaHei','PingFang SC',Arial,sans-serif" font-size="14" fill="#56606B">性别、文理科进入 Top-10 关键因子</text>
    </g>

    <g id="concl-4">
      <circle cx="92" cy="496" r="24" fill="#C77700" />
      <text x="92" y="503" text-anchor="middle" font-family="'Microsoft YaHei','PingFang SC',Arial,sans-serif" font-size="15" font-weight="800" fill="#FFFFFF">04</text>
      <path fill="#FFFFFF" stroke="#D4D0C4" stroke-width="1" d="M148,462 H692 A8,8 0 0 1 700,470 V522 A8,8 0 0 1 692,530 H148 A8,8 0 0 1 140,522 V470 A8,8 0 0 1 148,462 Z" />
      <path fill="#C77700" d="M142.50,462 H142.50 A2.50,2.50 0 0 1 145,464.50 V527.50 A2.50,2.50 0 0 1 142.50,530 H142.50 A2.50,2.50 0 0 1 140,527.50 V464.50 A2.50,2.50 0 0 1 142.50,462 Z" />
      
  <g transform="translate(160.0, 478.0) scale(0.9166666666666666)" fill="none" stroke="#C77700" stroke-width="2">
    <path d="M12 9v4" />
    <path d="M10.363 3.591l-8.106 13.534a1.914 1.914 0 0 0 1.636 2.871h16.214a1.914 1.914 0 0 0 1.636 -2.87l-8.106 -13.536a1.914 1.914 0 0 0 -3.274 0" />
    <path d="M12 16h.01" />
  </g>
      <text x="192" y="496" font-family="'Microsoft YaHei','PingFang SC',Arial,sans-serif" font-size="16" font-weight="800" fill="#23262B">SVM 最优但整体难度大</text>
      <text x="192" y="518" font-family="'Microsoft YaHei','PingFang SC',Arial,sans-serif" font-size="14" fill="#56606B">Macro F1 = 0.4988，受低频样本不足（8.1%）限制</text>
    </g>

    <g id="concl-tail">
      <circle cx="92" cy="612" r="24" fill="#2E7D32" />
      
  <g transform="translate(78.0, 598.0) scale(1.1666666666666667)" fill="none" stroke="#FFFFFF" stroke-width="2">
    <path d="M5 5a5 5 0 0 1 7 0a5 5 0 0 0 7 0v9a5 5 0 0 1 -7 0a5 5 0 0 0 -7 0v-9" />
    <path d="M5 21v-7" />
  </g>
      <path fill="#F3F1EC" d="M148,578 H692 A8,8 0 0 1 700,586 V638 A8,8 0 0 1 692,646 H148 A8,8 0 0 1 140,638 V586 A8,8 0 0 1 148,578 Z" />
      <path fill="#2E7D32" d="M142.50,578 H142.50 A2.50,2.50 0 0 1 145,580.50 V643.50 A2.50,2.50 0 0 1 142.50,646 H142.50 A2.50,2.50 0 0 1 140,643.50 V580.50 A2.50,2.50 0 0 1 142.50,578 Z" />
      <text x="160" y="606" font-family="'Microsoft YaHei','PingFang SC',Arial,sans-serif" font-size="16" font-weight="800" fill="#1A3C6E">研究同时回答了"为什么"和"还差什么"</text>
      <text x="160" y="630" font-family="'Microsoft YaHei','PingFang SC',Arial,sans-serif" font-size="14" fill="#56606B">因果归因与改进方向并存，结论可落地</text>
    </g>
  </g>

  <line x1="734" y1="132" x2="734" y2="660" stroke="#E8E3D6" stroke-width="1.5" />

  <g id="limit-future">
    <text x="762" y="132" font-family="'Microsoft YaHei','PingFang SC',Arial,sans-serif" font-size="13" font-weight="700" fill="#B11226" letter-spacing="2">局限 · LIMITATIONS</text>
    
  <g transform="translate(762.0, 150.0) scale(0.8333333333333334)" fill="none" stroke="#C77700" stroke-width="2">
    <path d="M12 9v4" />
    <path d="M10.363 3.591l-8.106 13.534a1.914 1.914 0 0 0 1.636 2.871h16.214a1.914 1.914 0 0 0 1.636 -2.87l-8.106 -13.536a1.914 1.914 0 0 0 -3.274 0" />
    <path d="M12 16h.01" />
  </g>
    <text x="790" y="166" font-family="'Microsoft YaHei','PingFang SC',Arial,sans-serif" font-size="14" fill="#23262B">低频样本极少（8.1%），少数类召回受限</text>
    
  <g transform="translate(762.0, 186.0) scale(0.8333333333333334)" fill="none" stroke="#C77700" stroke-width="2">
    <path d="M12 9v4" />
    <path d="M10.363 3.591l-8.106 13.534a1.914 1.914 0 0 0 1.636 2.871h16.214a1.914 1.914 0 0 0 1.636 -2.87l-8.106 -13.536a1.914 1.914 0 0 0 -3.274 0" />
    <path d="M12 16h.01" />
  </g>
    <text x="790" y="202" font-family="'Microsoft YaHei','PingFang SC',Arial,sans-serif" font-size="14" fill="#23262B">PCA 可分性低，二维难以线性分离</text>
    
  <g transform="translate(762.0, 222.0) scale(0.8333333333333334)" fill="none" stroke="#C77700" stroke-width="2">
    <path d="M12 9v4" />
    <path d="M10.363 3.591l-8.106 13.534a1.914 1.914 0 0 0 1.636 2.871h16.214a1.914 1.914 0 0 0 1.636 -2.87l-8.106 -13.536a1.914 1.914 0 0 0 -3.274 0" />
    <path d="M12 16h.01" />
  </g>
    <text x="790" y="238" font-family="'Microsoft YaHei','PingFang SC',Arial,sans-serif" font-size="14" fill="#23262B">问卷自填数据存在主观偏差</text>

    <line x1="762" y1="272" x2="1220" y2="272" stroke="#D4D0C4" stroke-width="1" />

    <text x="762" y="310" font-family="'Microsoft YaHei','PingFang SC',Arial,sans-serif" font-size="13" font-weight="700" fill="#2E7D32" letter-spacing="2">展望 · FUTURE WORK</text>
    
  <g transform="translate(762.0, 328.0) scale(0.8333333333333334)" fill="none" stroke="#2E7D32" stroke-width="2">
    <path d="M5 5a5 5 0 0 1 7 0a5 5 0 0 0 7 0v9a5 5 0 0 1 -7 0a5 5 0 0 0 -7 0v-9" />
    <path d="M5 21v-7" />
  </g>
    <text x="790" y="344" font-family="'Microsoft YaHei','PingFang SC',Arial,sans-serif" font-size="14" fill="#23262B">针对低频组的精细过采样策略</text>
    
  <g transform="translate(762.0, 364.0) scale(0.8333333333333334)" fill="none" stroke="#2E7D32" stroke-width="2">
    <path d="M5 5a5 5 0 0 1 7 0a5 5 0 0 0 7 0v9a5 5 0 0 1 -7 0a5 5 0 0 0 -7 0v-9" />
    <path d="M5 21v-7" />
  </g>
    <text x="790" y="380" font-family="'Microsoft YaHei','PingFang SC',Arial,sans-serif" font-size="14" fill="#23262B">引入非线性模型（梯度提升 / 神经网络）</text>
    
  <g transform="translate(762.0, 400.0) scale(0.8333333333333334)" fill="none" stroke="#2E7D32" stroke-width="2">
    <path d="M5 5a5 5 0 0 1 7 0a5 5 0 0 0 7 0v9a5 5 0 0 1 -7 0a5 5 0 0 0 -7 0v-9" />
    <path d="M5 21v-7" />
  </g>
    <text x="790" y="416" font-family="'Microsoft YaHei','PingFang SC',Arial,sans-serif" font-size="14" fill="#23262B">纵向追踪，刻画使用频率的动态变化</text>

    <path fill="#F3F1EC" d="M772,448 H1210 A10,10 0 0 1 1220,458 V628 A10,10 0 0 1 1210,638 H772 A10,10 0 0 1 762,628 V458 A10,10 0 0 1 772,448 Z" />
    
  <g transform="translate(786.0, 472.0) scale(1.0833333333333333)" fill="none" stroke="#1A3C6E" stroke-width="2">
    <path d="M3 12h1m8 -9v1m8 8h1m-15.4 -6.4l.7 .7m12.1 -.7l-.7 .7" />
    <path d="M9 16a5 5 0 1 1 6 0a3.5 3.5 0 0 0 -1 3a2 2 0 0 1 -4 0a3.5 3.5 0 0 0 -1 -3" />
    <path d="M9.7 17l4.6 0" />
  </g>
    <text x="822" y="492" font-family="'Microsoft YaHei','PingFang SC',Arial,sans-serif" font-size="16" font-weight="800" fill="#1A3C6E">一句话总结</text>
    <text font-size="16" font-family="'Microsoft YaHei','PingFang SC',Arial,sans-serif" fill="#23262B" x="786" y="528">生成式AI使用频率的高低，</text><text font-size="16" font-family="'Microsoft YaHei','PingFang SC',Arial,sans-serif" fill="#23262B" x="786" y="554"><tspan>可由<tspan font-weight="800" fill="#B11226">产品广度与功能取向</tspan>预测，</tspan>
      </text><text font-size="16" font-family="'Microsoft YaHei','PingFang SC',Arial,sans-serif" fill="#23262B" x="786" y="580">但低频样本稀缺制约了精度上限。</text></g>

  <g id="p13-footer">
    <line x1="60" y1="690" x2="1220" y2="690" stroke="#E8E3D6" stroke-width="1" />
    <text x="60" y="708" font-family="'Microsoft YaHei','PingFang SC',Arial,sans-serif" font-size="11" fill="#8C949D">结论汇总：results/experiment_summary.txt</text>
    <text x="1220" y="708" text-anchor="end" font-family="'Microsoft YaHei','PingFang SC',Arial,sans-serif" font-size="11" fill="#8C949D">13 / 14</text>
  </g>
</svg>